<svg width="115" height="37" viewBox="0 0 115 37" fill="none" xmlns="http://www.w3.org/2000/svg">
<g id="3">
<g id="3_2">
<g id="Group">
<path id="Vector" d="M9.5 22.7435V0H23.0302V22.7324H9.5V22.7435ZM21.3909 17.4523L21.739 14.94L20.4813 14.8177L20.0996 16.7519C19.3136 17.141 18.348 17.33 17.1914 17.33C15.6195 17.33 14.3731 16.8409 13.4636 15.8515C12.5429 14.8622 12.0938 13.5616 12.0938 11.9387C12.0938 10.3602 12.5429 9.05962 13.4299 8.03693C14.317 7.01425 15.4848 6.50291 16.9332 6.50291C17.6743 6.50291 18.3031 6.59184 18.8083 6.75858C19.3136 6.92532 19.774 7.14765 20.2119 7.43666L20.5824 9.34863L21.8625 9.22636L21.4919 6.71412C20.953 6.25836 20.3129 5.89153 19.5719 5.60251C18.8308 5.32461 17.9101 5.1801 16.8209 5.1801C15.5297 5.1801 14.418 5.49135 13.4861 6.12497C12.5541 6.75858 11.8243 7.59229 11.3078 8.62609C10.7913 9.671 10.533 10.7937 10.533 11.9943C10.533 13.8951 11.1281 15.4847 12.3183 16.7519C13.5085 18.0192 15.058 18.6528 16.9781 18.6528C18.8645 18.6528 20.3354 18.2526 21.3909 17.4523Z" fill="#C9B7AD"/>
<path id="Vector_2" d="M27.6228 22.7435V0H33.4391V22.7324H27.6228V22.7435ZM28.2404 18.4527H32.8328V17.3078H31.2496V4.61318H28.2179V5.75813H29.8236V17.3078H28.2404V18.4527Z" fill="#C9B7AD"/>
<path id="Vector_3" d="M38.0315 22.7435V0H48.2493V22.7324H38.0315V22.7435ZM39.8842 10.1823L39.5586 12.2499L40.7376 12.3944L41.0856 10.8493C41.5909 10.6047 42.1635 10.4825 42.8373 10.4825C43.6457 10.4825 44.1959 10.6826 44.4766 11.0827C44.7573 11.4829 44.8921 12.0054 44.8921 12.6501V13.4505C44.645 13.4282 44.3868 13.406 44.1061 13.3949C43.8254 13.3838 43.5559 13.3727 43.2864 13.3727C42.2759 13.3727 41.3102 13.5505 40.4119 13.9062C39.5136 14.2619 39.0645 15.0067 39.0645 16.1294C39.0645 17.0854 39.3677 17.7413 39.9853 18.097C40.6028 18.4638 41.2092 18.6417 41.8043 18.6417C42.5341 18.6417 43.1629 18.4527 43.6794 18.0748C44.1959 17.6968 44.6001 17.2744 44.8921 16.7853V16.8298C44.9145 18.0414 45.4647 18.6417 46.5426 18.6417C46.9581 18.6417 47.3511 18.5416 47.7216 18.3416L47.6992 17.4189C47.5195 17.4967 47.3174 17.5412 47.0928 17.5412C46.5763 17.5412 46.3181 17.2188 46.3181 16.5741V12.3166C46.3181 10.3157 45.2401 9.31528 43.0843 9.31528C42.4892 9.31528 41.9278 9.38198 41.4 9.51537C40.8611 9.65988 40.3558 9.8822 39.8842 10.1823ZM44.8808 15.0956C44.8247 15.8293 44.5215 16.4185 43.9713 16.8409C43.4211 17.2744 42.8373 17.4856 42.2085 17.4856C41.8155 17.4856 41.4337 17.3744 41.0744 17.1632C40.7039 16.952 40.5242 16.5519 40.5242 15.9738C40.5242 15.2735 40.8049 14.8289 41.3439 14.6177C41.8941 14.4065 42.5004 14.3064 43.1853 14.3064C43.4885 14.3064 43.7804 14.3175 44.0611 14.3509C44.3418 14.3731 44.6226 14.3953 44.8696 14.4065V15.0956H44.8808Z" fill="#C9B7AD"/>
<path id="Vector_4" d="M52.8529 22.7435V0H62.1387V22.7324H52.8529V22.7435ZM61.1619 15.8627C61.1619 15.1512 60.971 14.6288 60.5892 14.2842C60.2074 13.9396 59.7471 13.7061 59.1857 13.5727C58.6242 13.4394 58.0741 13.3282 57.5239 13.2393C56.9737 13.1503 56.5021 13.0058 56.1203 12.8169C55.7386 12.6279 55.5477 12.2944 55.5477 11.8164C55.5477 11.3606 55.7273 11.0272 56.0979 10.8048C56.4684 10.5825 56.9288 10.4825 57.5014 10.4825C58.1639 10.4825 58.7815 10.627 59.3541 10.9271L59.5787 12.3722L60.7577 12.2277L60.5331 10.1379C60.1513 9.90444 59.691 9.71546 59.1408 9.55984C58.5906 9.40421 58.0067 9.31528 57.3779 9.31528C56.547 9.31528 55.7835 9.51537 55.0761 9.90444C54.3687 10.2935 54.0206 10.9605 54.0206 11.9164C54.0206 12.6168 54.2115 13.1281 54.5933 13.4505C54.975 13.784 55.4466 14.0063 56.0193 14.1397C56.5919 14.2731 57.1533 14.3842 57.7147 14.4843C58.2762 14.5732 58.7478 14.7288 59.1295 14.9289C59.5113 15.129 59.7022 15.4736 59.7022 15.9738C59.7022 16.4852 59.4551 16.8631 58.9611 17.1077C58.467 17.3522 57.9056 17.4745 57.2656 17.4745C56.547 17.4745 55.8733 17.33 55.2557 17.0299L55.3119 15.8404L54.1778 15.7182L53.8971 17.7524C54.2901 18.0081 54.8066 18.2193 55.4354 18.386C56.0642 18.5528 56.693 18.6417 57.333 18.6417C58.4221 18.6417 59.3317 18.3971 60.0615 17.8969C60.7914 17.4189 61.1619 16.7297 61.1619 15.8627Z" fill="#C9B7AD"/>
<path id="Vector_5" d="M66.7314 22.7435V0H76.0173V22.7324H66.7314V22.7435ZM75.0404 15.8627C75.0404 15.1512 74.8495 14.6288 74.4677 14.2842C74.086 13.9396 73.6256 13.7061 73.0642 13.5727C72.5028 13.4394 71.9526 13.3282 71.4024 13.2393C70.8522 13.1503 70.3806 13.0058 69.9989 12.8169C69.6171 12.6279 69.4262 12.2944 69.4262 11.8164C69.4262 11.3606 69.6059 11.0272 69.9764 10.8048C70.3469 10.5825 70.8073 10.4825 71.3799 10.4825C72.0424 10.4825 72.66 10.627 73.2326 10.9271L73.4572 12.3722L74.6362 12.2277L74.4116 10.1379C74.0298 9.90444 73.5695 9.71546 73.0193 9.55984C72.4691 9.40421 71.8852 9.31528 71.2564 9.31528C70.4255 9.31528 69.662 9.51537 68.9546 9.90444C68.2473 10.2935 67.8992 10.9605 67.8992 11.9164C67.8992 12.6168 68.0901 13.1281 68.4718 13.4505C68.8536 13.784 69.3252 14.0063 69.8979 14.1397C70.4705 14.2731 71.0319 14.3842 71.5933 14.4843C72.1547 14.5732 72.6263 14.7288 73.0081 14.9289C73.3898 15.129 73.5807 15.4736 73.5807 15.9738C73.5807 16.4852 73.3337 16.8631 72.8397 17.1077C72.3456 17.3522 71.7842 17.4745 71.1442 17.4745C70.4256 17.4745 69.7518 17.33 69.1343 17.0299L69.1905 15.8404L68.0564 15.7182L67.7757 17.7524C68.1687 18.0081 68.6852 18.2193 69.314 18.386C69.9427 18.5528 70.5715 18.6417 71.2116 18.6417C72.3007 18.6417 73.2102 18.3971 73.94 17.8969C74.6699 17.4189 75.0404 16.7297 75.0404 15.8627Z" fill="#C9B7AD"/>
<path id="Vector_6" d="M80.6095 22.7435V0H86.729V22.7324H80.6095V22.7435ZM81.5078 18.4527H86.1002V17.3078H84.517V9.50426H81.4741V10.6492H83.1022V17.3078H81.519V18.4527H81.5078ZM82.945 5.35796V7.19211H84.4946V5.35796H82.945Z" fill="#C9B7AD"/>
<path id="Vector_7" d="M91.3212 22.7435V0H101.101V22.7324H91.3212V22.7435ZM100.225 15.4403L99.0015 15.1735C98.732 16.6853 97.9123 17.4411 96.5649 17.4411C95.6667 17.4411 94.9817 17.141 94.5101 16.5407C94.0385 15.9405 93.8027 15.0957 93.8027 14.0285C93.8027 13.0614 94.0161 12.2388 94.4315 11.5496C94.847 10.8604 95.5431 10.5269 96.5087 10.5269C97.2498 10.5269 97.9011 10.6937 98.44 11.0272L98.7881 12.5389L99.9671 12.3944L99.619 10.2379C99.1586 9.89332 98.6759 9.64877 98.1706 9.51537C97.6653 9.38198 97.1151 9.31528 96.52 9.31528C95.1164 9.31528 94.0497 9.80439 93.3536 10.7826C92.6462 11.7608 92.2981 12.8724 92.2981 14.1063C92.2981 15.5403 92.6686 16.663 93.4209 17.4523C94.162 18.2526 95.1614 18.6528 96.4077 18.6528C97.6541 18.6528 98.5748 18.3082 99.1587 17.6301C99.7426 16.9409 100.102 16.2184 100.225 15.4403Z" fill="#C9B7AD"/>
</g>
<g id="Group_2">
<path id="Vector_8" d="M15.3502 35.1602C15.0919 35.627 14.7102 35.9939 14.2161 36.2496C13.7108 36.5052 13.1157 36.6386 12.4196 36.6386H10.4097V30.3691H12.4196C13.1157 30.3691 13.7221 30.4914 14.2161 30.7471C14.7102 31.0028 15.0919 31.3585 15.3502 31.8365C15.6084 32.3145 15.7319 32.8591 15.7319 33.5039C15.7319 34.1375 15.6084 34.6933 15.3502 35.1602ZM14.2385 35.2825C14.6765 34.86 14.8898 34.2709 14.8898 33.5039C14.8898 32.7369 14.6765 32.1477 14.2385 31.7253C13.8006 31.3029 13.1718 31.0917 12.3409 31.0917H11.2069V35.9161H12.3409C13.1718 35.9161 13.8006 35.7049 14.2385 35.2825Z" fill="#C9B7AD"/>
<path id="Vector_9" d="M19.8978 31.025V33.1704H22.3007V33.7929H19.8978V35.9828H22.5702V36.6386H19.0781V30.3691H22.5702V31.025H19.8978Z" fill="#C9B7AD"/>
<path id="Vector_10" d="M29.6665 35.8385C29.5205 36.0942 29.3072 36.3054 29.0152 36.4611C28.7233 36.6167 28.364 36.7056 27.9261 36.7056C27.5106 36.7056 27.1289 36.6278 26.8032 36.4833C26.4776 36.3277 26.2194 36.1276 26.0173 35.8608C25.8264 35.594 25.7141 35.2939 25.6804 34.9604H26.5562C26.5787 35.1382 26.6348 35.3161 26.7359 35.4828C26.8369 35.6496 26.9941 35.7941 27.185 35.9052C27.3759 36.0164 27.6117 36.072 27.8924 36.072C28.2517 36.072 28.5324 35.9831 28.7233 35.783C28.9142 35.5829 29.0152 35.3494 29.0152 35.0493C29.0152 34.7936 28.9479 34.5824 28.8131 34.4268C28.6784 34.2712 28.51 34.1378 28.3191 34.0489C28.1282 33.9599 27.8475 33.8599 27.5106 33.7487C27.1064 33.6153 26.792 33.4931 26.545 33.3819C26.298 33.2707 26.0958 33.0929 25.9274 32.8594C25.759 32.626 25.6692 32.3259 25.6692 31.9479C25.6692 31.6255 25.7478 31.3365 25.905 31.0809C26.0622 30.8363 26.2867 30.6362 26.5899 30.5028C26.8818 30.3694 27.2412 30.3027 27.6342 30.3027C28.2517 30.3027 28.757 30.4472 29.1163 30.7474C29.4868 31.0475 29.6889 31.4255 29.7563 31.8923H28.8805C28.8356 31.6478 28.7008 31.4255 28.4987 31.2365C28.2854 31.0475 28.0047 30.9475 27.6454 30.9475C27.3197 30.9475 27.0503 31.0364 26.8594 31.2031C26.6573 31.3699 26.5674 31.6144 26.5674 31.9146C26.5674 32.1591 26.6348 32.3592 26.7583 32.5037C26.8931 32.6593 27.0503 32.7705 27.2412 32.8594C27.432 32.9484 27.7015 33.0373 28.0271 33.1485C28.4313 33.2818 28.757 33.4041 29.0152 33.5264C29.2622 33.6487 29.4756 33.8265 29.644 34.06C29.8124 34.2934 29.9023 34.6158 29.9023 35.016C29.8798 35.305 29.8125 35.5829 29.6665 35.8385Z" fill="#C9B7AD"/>
<path id="Vector_11" d="M34.0453 30.3691V36.6386H33.2256V30.3691H34.0453Z" fill="#C9B7AD"/>
<path id="Vector_12" d="M42.3319 30.8472C42.8371 31.214 43.174 31.7031 43.3424 32.3256H42.4778C42.3319 31.9477 42.0736 31.6364 41.7255 31.4141C41.3774 31.1807 40.962 31.0695 40.4792 31.0695C40.0525 31.0695 39.6595 31.1695 39.3226 31.3696C38.9858 31.5697 38.7163 31.8476 38.5142 32.2145C38.3233 32.5813 38.2223 33.0148 38.2223 33.515C38.2223 34.0264 38.3233 34.471 38.5142 34.8379C38.7051 35.2047 38.9858 35.4937 39.3339 35.6938C39.682 35.8939 40.0862 35.9939 40.5466 35.9939C40.9395 35.9939 41.2876 35.905 41.6132 35.7494C41.9389 35.5826 42.1971 35.3381 42.4104 35.0268C42.6238 34.7156 42.7361 34.3376 42.781 33.9152H40.2883V33.315H43.4659V34.0597C43.4098 34.56 43.2526 35.0046 42.9943 35.4159C42.7361 35.8272 42.388 36.1384 41.9501 36.3719C41.5122 36.6053 41.0181 36.7276 40.4567 36.7276C39.8504 36.7276 39.3114 36.5942 38.8398 36.3274C38.3682 36.0606 38.0089 35.6827 37.7507 35.1936C37.4924 34.7156 37.3577 34.1598 37.3577 33.5373C37.3577 32.9148 37.4924 32.359 37.7507 31.881C38.0089 31.403 38.3795 31.0139 38.8398 30.7471C39.3002 30.4804 39.8391 30.3358 40.4455 30.3358C41.209 30.3136 41.8266 30.4915 42.3319 30.8472Z" fill="#C9B7AD"/>
<path id="Vector_13" d="M51.7525 36.6386H50.9328L47.6429 31.6808V36.6386H46.8232V30.3691H47.6429L50.9328 35.3269V30.3691H51.7525V36.6386Z" fill="#C9B7AD"/>
<path id="Vector_14" d="M63.5646 35.8385C63.4186 36.0942 63.2052 36.3054 62.9133 36.4611C62.6214 36.6167 62.2621 36.7056 61.8242 36.7056C61.4087 36.7056 61.027 36.6278 60.7013 36.4833C60.3757 36.3277 60.1174 36.1276 59.9153 35.8608C59.7245 35.594 59.6122 35.2939 59.5785 34.9604H60.4543C60.4767 35.1382 60.5329 35.3161 60.634 35.4828C60.735 35.6496 60.8922 35.7941 61.0831 35.9052C61.2739 36.0164 61.5097 36.072 61.7905 36.072C62.1498 36.072 62.4305 35.9831 62.6213 35.783C62.8122 35.5829 62.9133 35.3494 62.9133 35.0493C62.9133 34.7936 62.8459 34.5824 62.7112 34.4268C62.5765 34.2712 62.408 34.1378 62.2171 34.0489C62.0263 33.9599 61.7456 33.8599 61.4087 33.7487C61.0045 33.6153 60.6901 33.4931 60.443 33.3819C60.196 33.2707 59.9939 33.0929 59.8255 32.8594C59.6571 32.626 59.5673 32.3259 59.5673 31.9479C59.5673 31.6255 59.6458 31.3365 59.803 31.0809C59.9602 30.8363 60.1848 30.6362 60.488 30.5028C60.7799 30.3694 61.1392 30.3027 61.5322 30.3027C62.1498 30.3027 62.6551 30.4472 63.0144 30.7474C63.3849 31.0475 63.587 31.4255 63.6544 31.8923H62.7786C62.7336 31.6478 62.5989 31.4255 62.3968 31.2365C62.1834 31.0475 61.9028 30.9475 61.5435 30.9475C61.2178 30.9475 60.9483 31.0364 60.7575 31.2031C60.5554 31.3699 60.4655 31.6144 60.4655 31.9146C60.4655 32.1591 60.5329 32.3592 60.6564 32.5037C60.7911 32.6593 60.9483 32.7705 61.1392 32.8594C61.3301 32.9484 61.5996 33.0373 61.9252 33.1485C62.3294 33.2818 62.655 33.4041 62.9133 33.5264C63.1603 33.6487 63.3737 33.8265 63.5421 34.06C63.7105 34.2934 63.8003 34.6158 63.8003 35.016C63.7779 35.305 63.7105 35.5829 63.5646 35.8385Z" fill="#C9B7AD"/>
<path id="Vector_15" d="M71.009 30.3691V31.025H69.2237V36.6386H68.3928V31.025H66.6074V30.3691H71.009Z" fill="#C9B7AD"/>
<path id="Vector_16" d="M74.8274 30.3691V34.1264C74.8274 34.7378 74.9622 35.1935 75.2429 35.4937C75.5236 35.7827 75.8942 35.9383 76.3882 35.9383C76.871 35.9383 77.2416 35.7938 77.511 35.4937C77.7805 35.1935 77.9152 34.7489 77.9152 34.1375V30.3803H78.735V34.1375C78.735 34.9934 78.5216 35.6382 78.0949 36.0606C77.6683 36.4941 77.0956 36.7053 76.377 36.7053C75.6696 36.7053 75.097 36.4941 74.6703 36.0606C74.2436 35.6271 74.0303 34.9934 74.0303 34.1375V30.3803H74.8274V30.3691Z" fill="#C9B7AD"/>
<path id="Vector_17" d="M87.1892 35.1602C86.931 35.627 86.5492 35.9939 86.0551 36.2496C85.5499 36.5052 84.9548 36.6386 84.2586 36.6386H82.2488V30.3691H84.2586C84.9548 30.3691 85.5611 30.4914 86.0551 30.7471C86.5492 31.0028 86.931 31.3585 87.1892 31.8365C87.4475 32.3145 87.571 32.8591 87.571 33.5039C87.571 34.1375 87.4475 34.6933 87.1892 35.1602ZM86.0889 35.2825C86.5268 34.86 86.7401 34.2709 86.7401 33.5039C86.7401 32.7369 86.5268 32.1477 86.0889 31.7253C85.651 31.3029 85.0222 31.0917 84.1913 31.0917H83.0572V35.9161H84.1913C85.0109 35.9161 85.651 35.7049 86.0889 35.2825Z" fill="#C9B7AD"/>
<path id="Vector_18" d="M91.7476 30.3691V36.6386H90.928V30.3691H91.7476Z" fill="#C9B7AD"/>
<path id="Vector_19" d="M99.7875 30.7023C100.259 30.9802 100.63 31.3582 100.899 31.8473C101.169 32.3364 101.303 32.8922 101.303 33.5036C101.303 34.1149 101.169 34.6708 100.899 35.1599C100.63 35.649 100.259 36.0269 99.7875 36.3048C99.3159 36.5827 98.7881 36.7161 98.2042 36.7161C97.6204 36.7161 97.0814 36.5827 96.6098 36.3048C96.1382 36.0269 95.7565 35.649 95.487 35.1599C95.2175 34.6708 95.0828 34.1149 95.0828 33.5036C95.0828 32.8922 95.2175 32.3364 95.487 31.8473C95.7565 31.3582 96.127 30.9802 96.6098 30.7023C97.0927 30.4244 97.6204 30.291 98.2042 30.291C98.7881 30.291 99.3159 30.4244 99.7875 30.7023ZM97.0253 31.347C96.6772 31.5471 96.4078 31.825 96.2169 32.203C96.026 32.5698 95.9249 33.0033 95.9249 33.5036C95.9249 33.9927 96.026 34.4262 96.2169 34.8041C96.4078 35.1821 96.6772 35.46 97.0253 35.6601C97.3734 35.8602 97.7551 35.9602 98.193 35.9602C98.6197 35.9602 99.0127 35.8602 99.3608 35.6601C99.7089 35.46 99.9783 35.171 100.169 34.8041C100.36 34.4373 100.461 34.0038 100.461 33.5147C100.461 33.0145 100.36 32.5809 100.169 32.2141C99.9783 31.8473 99.7089 31.5582 99.3608 31.3582C99.0127 31.1581 98.6309 31.058 98.193 31.058C97.7663 31.0469 97.3734 31.147 97.0253 31.347Z" fill="#C9B7AD"/>
</g>
</g>
</g>
</svg>
