<svg width="145" height="34" viewBox="0 0 145 34" fill="none" xmlns="http://www.w3.org/2000/svg">
<g id="4">
<g id="4_2">
<g id="Group">
<path id="Vector" d="M36.3714 33.8112H15.2762C11.8095 33.8112 8.99995 31.0298 8.99995 27.5978V6.71345C8.99995 3.28144 11.8095 0.5 15.2762 0.5H36.3714C39.8381 0.5 42.6476 3.28144 42.6476 6.71345V27.5978C42.6476 31.0298 39.8381 33.8112 36.3714 33.8112Z" fill="#C78A6C"/>
</g>
<g id="Group_2">
<path id="Vector_2" d="M31.8856 17.4621C32.4856 18.207 32.7904 19.0744 32.7904 20.055C32.7904 21.4975 32.3047 22.629 31.3332 23.4304C30.3618 24.2318 28.9713 24.6467 27.1618 24.6467H19.257V7.81665H26.9713C28.7047 7.81665 30.038 8.1938 30.9809 8.93866C31.9237 9.68351 32.3999 10.7489 32.3999 12.1255C32.3999 13.1438 32.1237 13.983 31.5809 14.6618C31.038 15.3407 30.3237 15.7744 29.438 15.9818C30.4761 16.227 31.2856 16.7172 31.8856 17.4621ZM23.3618 14.6995H26.057C27.4856 14.6995 28.1999 14.0961 28.1999 12.8892C28.1999 11.6824 27.4666 11.0789 26.0094 11.0789H23.3618V14.6995ZM28.5808 19.4893C28.5808 18.8858 28.3809 18.4144 27.9809 18.075C27.5809 17.7355 27.0094 17.5658 26.2761 17.5658H23.3713V21.3467H26.3047C27.819 21.3373 28.5808 20.7244 28.5808 19.4893Z" fill="white"/>
</g>
<g id="Group_3">
<path id="Vector_3" d="M62.1431 24.6467L58.4669 18.2918H57.5336V24.6467H53.4193V7.81665H60.4383C61.7812 7.81665 62.924 8.04294 63.8479 8.50494C64.7812 8.96694 65.4764 9.59865 65.9431 10.4001C66.4097 11.2015 66.6383 12.1161 66.6383 13.1532C66.6383 14.379 66.2955 15.4161 65.6193 16.2741C64.9336 17.1321 63.9526 17.7167 62.6478 18.0372L66.6859 24.6561H62.1431V24.6467ZM57.5336 15.5104H60.0764C60.8954 15.5104 61.4955 15.3312 61.8764 14.973C62.2574 14.6147 62.4574 14.0867 62.4574 13.389C62.4574 12.7195 62.2574 12.2009 61.8669 11.8144C61.4764 11.4372 60.8764 11.2392 60.0764 11.2392H57.5336V15.5104Z" fill="#C9B7AD"/>
<path id="Vector_4" d="M85.2481 21.5832H78.8767L77.8195 24.6569H73.4957L79.7243 7.94946H84.4576L90.6862 24.6569H86.3148L85.2481 21.5832ZM84.1909 18.4812L82.0766 12.296L79.9338 18.4812H84.1909Z" fill="#C9B7AD"/>
<path id="Vector_5" d="M113.381 24.6467H109.267L102.391 14.3129V24.6467H98.2766V7.81665H102.391L109.267 18.2447V7.81665H113.381V24.6467Z" fill="#C9B7AD"/>
<path id="Vector_6" d="M136.448 20.5927C135.734 21.8656 134.705 22.865 133.372 23.5816C132.029 24.2982 130.458 24.6565 128.648 24.6565H122.229V7.82642H128.648C130.477 7.82642 132.058 8.17527 133.381 8.87299C134.715 9.57071 135.734 10.5513 136.448 11.8241C137.162 13.097 137.515 14.549 137.515 16.2084C137.515 17.849 137.153 19.3104 136.448 20.5927ZM132.02 19.7441C132.905 18.905 133.353 17.717 133.353 16.199C133.353 14.6716 132.905 13.493 132.02 12.6539C131.134 11.8147 129.886 11.3904 128.277 11.3904H126.334V21.0076H128.277C129.886 21.0076 131.134 20.5927 132.02 19.7441Z" fill="#C9B7AD"/>
</g>
</g>
</g>
</svg>
