<svg width="22" height="16" viewBox="0 0 22 16" fill="none" xmlns="http://www.w3.org/2000/svg">
<g id="Icon">
<path id="Vector" d="M1.66666 6.83301H20.3333" stroke="#3B3A5D" stroke-width="1.5" stroke-linecap="round" stroke-linejoin="round"/>
<path id="Vector_2" d="M19.1667 12.667V14.417C19.1667 14.5717 19.0929 14.7201 18.9616 14.8295C18.8304 14.9389 18.6523 15.0003 18.4667 15.0003H16.3667C16.181 15.0003 16.003 14.9389 15.8717 14.8295C15.7404 14.7201 15.6667 14.5717 15.6667 14.417V12.667" stroke="#3B3A5D" stroke-width="1.5" stroke-linecap="round" stroke-linejoin="round"/>
<path id="Vector_3" d="M6.3334 12.667V14.417C6.3334 14.5717 6.25965 14.7201 6.12838 14.8295C5.9971 14.9389 5.81906 15.0003 5.6334 15.0003H3.5334C3.34775 15.0003 3.16971 14.9389 3.03843 14.8295C2.90715 14.7201 2.8334 14.5717 2.8334 14.417V12.667" stroke="#3B3A5D" stroke-width="1.5" stroke-linecap="round" stroke-linejoin="round"/>
<path id="Vector_4" d="M5.16666 9.16699H7.49999" stroke="#3B3A5D" stroke-width="1.5" stroke-linecap="round" stroke-linejoin="round"/>
<path id="Vector_5" d="M14.4999 9.16699H16.8332" stroke="#3B3A5D" stroke-width="1.5" stroke-linecap="round" stroke-linejoin="round"/>
<path id="Vector_6" d="M19.1666 7.17647L16.6231 1.41176C16.5703 1.28981 16.4835 1.18596 16.3732 1.11285C16.263 1.03974 16.134 1.00053 16.0021 1H5.9979C5.86594 1.00053 5.73699 1.03974 5.62673 1.11285C5.51647 1.18596 5.42967 1.28981 5.37689 1.41176L2.83331 7.17647V12.6667H19.1666V7.17647Z" stroke="#3B3A5D" stroke-width="1.5" stroke-linecap="round" stroke-linejoin="round"/>
</g>
</svg>
