<svg width="23" height="22" viewBox="0 0 23 22" fill="none" xmlns="http://www.w3.org/2000/svg">
<g id="In">
<path id="Vector" d="M20.7397 0H2.5877C1.59585 0 0.729248 0.71367 0.729248 1.69387V19.8861C0.729248 20.8717 1.59585 21.7499 2.5877 21.7499H20.7343C21.7315 21.7499 22.4792 20.8659 22.4792 19.8861V1.69387C22.485 0.71367 21.7315 0 20.7397 0ZM7.47124 18.1296H4.35537V8.44169H7.47124V18.1296ZM6.02108 6.96872H5.99875C5.00156 6.96872 4.35585 6.2264 4.35585 5.29718C4.35585 4.35096 5.01855 3.62612 6.03808 3.62612C7.0576 3.62612 7.68146 4.34562 7.70379 5.29718C7.70331 6.2264 7.0576 6.96872 6.02108 6.96872ZM18.8589 18.1296H15.743V12.8325C15.743 11.5634 15.2896 10.6963 14.1623 10.6963C13.301 10.6963 12.7912 11.2789 12.5645 11.8464C12.4796 12.0503 12.4567 12.328 12.4567 12.6116V18.1296H9.34086V8.44169H12.4567V9.7899C12.9102 9.1442 13.6185 8.21497 15.2667 8.21497C17.3121 8.21497 18.8594 9.56317 18.8594 12.4698L18.8589 18.1296Z" fill="#3B3A5D"/>
</g>
</svg>
