<svg width="23" height="22" viewBox="0 0 23 22" fill="none" xmlns="http://www.w3.org/2000/svg">
<g id="Insta">
<path id="Vector" d="M15.766 1.95024C16.9948 1.95377 18.1723 2.42506 19.0411 3.26118C19.91 4.09729 20.3998 5.2303 20.4035 6.41274V15.3368C20.3998 16.5192 19.91 17.6522 19.0411 18.4884C18.1723 19.3245 16.9948 19.7958 15.766 19.7993H6.49213C5.26333 19.7958 4.08591 19.3245 3.21701 18.4884C2.34812 17.6522 1.85835 16.5192 1.85468 15.3368V6.41274C1.85835 5.2303 2.34812 4.09729 3.21701 3.26118C4.08591 2.42506 5.26333 1.95377 6.49213 1.95024H15.766ZM15.766 0.165527H6.49213C2.92138 0.165527 0 2.9767 0 6.41274V15.3368C0 18.7728 2.92138 21.584 6.49213 21.584H15.766C19.3368 21.584 22.2582 18.7728 22.2582 15.3368V6.41274C22.2582 2.9767 19.3368 0.165527 15.766 0.165527Z" fill="#3B3A5D"/>
<path id="Vector_2" d="M17.1572 6.41315C16.8821 6.41315 16.6131 6.33464 16.3843 6.18755C16.1556 6.04045 15.9773 5.83138 15.872 5.58678C15.7667 5.34217 15.7391 5.07301 15.7928 4.81334C15.8465 4.55366 15.979 4.31514 16.1735 4.12792C16.3681 3.94071 16.6159 3.81321 16.8858 3.76156C17.1557 3.70991 17.4354 3.73642 17.6896 3.83774C17.9438 3.93906 18.161 4.11064 18.3139 4.33078C18.4667 4.55092 18.5483 4.80973 18.5483 5.07449C18.5487 5.2504 18.513 5.42464 18.4432 5.58722C18.3735 5.74981 18.271 5.89753 18.1418 6.02191C18.0125 6.14629 17.859 6.24488 17.69 6.31202C17.5211 6.37916 17.34 6.41353 17.1572 6.41315ZM11.1291 7.30527C11.8629 7.30527 12.5801 7.51464 13.1902 7.90691C13.8003 8.29917 14.2758 8.85671 14.5566 9.50903C14.8374 10.1613 14.9108 10.8791 14.7677 11.5716C14.6245 12.2641 14.2712 12.9002 13.7524 13.3995C13.2335 13.8987 12.5725 14.2387 11.8529 14.3765C11.1332 14.5142 10.3873 14.4435 9.70941 14.1733C9.03153 13.9031 8.45213 13.4456 8.04448 12.8585C7.63684 12.2714 7.41926 11.5812 7.41926 10.8752C7.42031 9.92869 7.81151 9.02125 8.50701 8.35199C9.20252 7.68272 10.1455 7.30628 11.1291 7.30527ZM11.1291 5.52055C10.0286 5.52055 8.95271 5.8346 8.03762 6.42297C7.12254 7.01134 6.40932 7.84762 5.98815 8.82605C5.56699 9.80448 5.45679 10.8811 5.6715 11.9198C5.88621 12.9585 6.41618 13.9126 7.19439 14.6615C7.97261 15.4103 8.96411 15.9203 10.0435 16.1269C11.1229 16.3335 12.2418 16.2275 13.2586 15.8222C14.2754 15.4169 15.1444 14.7306 15.7559 13.85C16.3673 12.9695 16.6937 11.9342 16.6937 10.8752C16.6937 9.45504 16.1074 8.09307 15.0638 7.08889C14.0203 6.0847 12.6049 5.52055 11.1291 5.52055Z" fill="#3B3A5D"/>
</g>
</svg>
