<svg width="16" height="23" viewBox="0 0 16 23" fill="none" xmlns="http://www.w3.org/2000/svg">
<path id="Vector" d="M8.00002 0C3.58352 0 1.52588e-05 3.3119 1.52588e-05 7.39286C1.52588e-05 13.9643 8.00002 23 8.00002 23C8.00002 23 16 13.9643 16 7.39286C16 3.3119 12.4165 0 8.00002 0ZM8.00002 11.5C7.36712 11.5 6.74843 11.3073 6.22219 10.9463C5.69595 10.5852 5.2858 10.0721 5.0436 9.47167C4.8014 8.87129 4.73803 8.21064 4.8615 7.57328C4.98497 6.93591 5.28975 6.35045 5.73727 5.89093C6.1848 5.43142 6.75499 5.11849 7.37573 4.99171C7.99647 4.86493 8.63988 4.92999 9.2246 5.17868C9.80933 5.42737 10.3091 5.84851 10.6607 6.38884C11.0123 6.92917 11.2 7.56443 11.2 8.21429C11.1991 9.08542 10.8616 9.9206 10.2617 10.5366C9.66182 11.1526 8.84842 11.499 8.00002 11.5Z" fill="#3B3A5D"/>
</svg>
