<svg width="21" height="16" viewBox="0 0 21 16" fill="none" xmlns="http://www.w3.org/2000/svg">
<path id="Vector" d="M18.375 0H2.62502C1.92905 0.000721921 1.2618 0.269135 0.769682 0.746344C0.277561 1.22355 0.00075974 1.87058 1.52588e-05 2.54545V13.4545C0.00075974 14.1294 0.277561 14.7764 0.769682 15.2537C1.2618 15.7309 1.92905 15.9993 2.62502 16H18.375C19.071 15.9993 19.7382 15.7309 20.2303 15.2537C20.7225 14.7764 20.9993 14.1294 21 13.4545V2.54545C20.9993 1.87058 20.7225 1.22355 20.2303 0.746344C19.7382 0.269135 19.071 0.000721921 18.375 0ZM17.7103 4.21045L10.9603 9.30136C10.8287 9.40059 10.6667 9.45445 10.5 9.45445C10.3333 9.45445 10.1713 9.40059 10.0397 9.30136L3.2897 4.21045C3.2104 4.15238 3.14378 4.0796 3.09373 3.99634C3.04369 3.91309 3.0112 3.82102 2.99816 3.72548C2.98513 3.62995 2.9918 3.53285 3.0178 3.43984C3.04379 3.34683 3.08859 3.25975 3.14959 3.18367C3.21059 3.1076 3.28658 3.04403 3.37313 2.99668C3.45968 2.94932 3.55508 2.91912 3.65377 2.90782C3.75247 2.89653 3.85249 2.90436 3.94804 2.93088C4.04358 2.95739 4.13274 3.00206 4.21033 3.06227L10.5 7.80591L16.7897 3.06227C16.947 2.9471 17.1447 2.89659 17.3401 2.92166C17.5354 2.94673 17.7128 3.04536 17.8338 3.19624C17.9547 3.34711 18.0096 3.5381 17.9865 3.72789C17.9634 3.91769 17.8642 4.09104 17.7103 4.21045Z" fill="#3B3A5D"/>
</svg>
