<svg width="19" height="19" viewBox="0 0 19 19" fill="none" xmlns="http://www.w3.org/2000/svg">
<path id="Vector" d="M18.9555 14.3408C18.7341 14.1049 17.9525 13.4077 16.5156 12.4853C15.0681 11.5547 14.0006 10.9746 13.6943 10.8393C13.6674 10.8273 13.6376 10.8229 13.6083 10.8266C13.579 10.8302 13.5513 10.8418 13.5281 10.86C13.0348 11.2447 12.2044 11.9513 12.1599 11.9895C11.8723 12.2359 11.8723 12.2359 11.6369 12.1591C11.223 12.0234 9.93708 11.3406 8.81656 10.2175C7.69604 9.09445 6.978 7.77673 6.84229 7.36321C6.76467 7.12741 6.76467 7.12741 7.01193 6.83986C7.0501 6.79532 7.75711 5.96491 8.14178 5.47208C8.16003 5.44888 8.1716 5.42114 8.17526 5.39184C8.17893 5.36255 8.17454 5.33282 8.16257 5.30583C8.02727 4.9992 7.44708 3.93212 6.51656 2.48462C5.59283 1.04814 4.89643 0.266495 4.66062 0.0451066C4.63898 0.0246867 4.61223 0.0104815 4.5832 0.00398773C4.55416 -0.00250602 4.52391 -0.00104779 4.49564 0.00820859C3.67135 0.291469 2.87605 0.652905 2.12058 1.08758C1.39127 1.51154 0.700813 1.99904 0.0572393 2.54442C0.0347737 2.56352 0.0179306 2.58837 0.00851642 2.61631C-0.000897805 2.64426 -0.00252804 2.67424 0.00380045 2.70304C0.0924412 3.11612 0.516135 4.84058 1.8309 7.22919C3.17239 9.66701 4.10206 10.916 6.07209 12.8793C8.04212 14.8425 9.33059 15.8281 11.771 17.1696C14.1596 18.4844 15.8849 18.9085 16.2972 18.9963C16.326 19.0025 16.356 19.0009 16.384 18.9915C16.412 18.9821 16.437 18.9653 16.4562 18.9428C17.0015 18.2993 17.4888 17.6088 17.9126 16.8795C18.3472 16.124 18.7087 15.3287 18.992 14.5045C19.0011 14.4764 19.0025 14.4464 18.9961 14.4176C18.9896 14.3889 18.9757 14.3623 18.9555 14.3408Z" fill="#3B3A5D"/>
</svg>
