<svg width="22" height="18" viewBox="0 0 22 18" fill="none" xmlns="http://www.w3.org/2000/svg">
<g id="Twiter">
<path id="Vector" d="M21.7292 2.32631C20.9238 2.67602 20.0717 2.90641 19.1997 3.01021C20.1161 2.47399 20.8052 1.6221 21.1379 0.614324C20.2715 1.12059 19.3252 1.4758 18.3395 1.66476C17.9244 1.23007 17.4252 0.884265 16.8723 0.64836C16.3193 0.412455 15.7241 0.291378 15.1229 0.292488C12.6886 0.292488 10.7186 2.23244 10.7186 4.62386C10.7169 4.9565 10.755 5.28814 10.8322 5.61172C9.08667 5.52994 7.37741 5.08497 5.81381 4.30527C4.2502 3.52556 2.86668 2.4283 1.75176 1.08367C1.36062 1.74259 1.15376 2.4944 1.15281 3.26053C1.15281 4.76243 1.93695 6.09 3.12099 6.86777C2.41948 6.85113 1.73234 6.6656 1.11792 6.32691V6.38055C1.11792 8.48142 2.63878 10.2292 4.65169 10.627C4.27317 10.7278 3.88311 10.7789 3.49136 10.779C3.21339 10.7795 2.93605 10.7525 2.66338 10.6985C3.22297 12.4194 4.85164 13.671 6.78091 13.7068C5.21324 14.9141 3.28856 15.5666 1.30937 15.5618C0.958054 15.5613 0.607068 15.5404 0.258179 15.4992C2.27162 16.784 4.61208 17.4636 7.00099 17.4571C15.1135 17.4571 19.5455 10.855 19.5455 5.12896C19.5455 4.94123 19.5405 4.75349 19.5316 4.57022C20.3918 3.95876 21.136 3.19889 21.7292 2.32631Z" fill="#3B3A5D"/>
</g>
</svg>
