<svg width="27" height="20" viewBox="0 0 27 20" fill="none" xmlns="http://www.w3.org/2000/svg">
<g id="Youtube">
<path id="Vector" d="M26.3121 4.57022C26.3121 2.34372 24.6311 0.552625 22.5538 0.552625C19.7402 0.424478 16.8707 0.375 13.9382 0.375H13.024C10.0987 0.375 7.2241 0.424478 4.41046 0.55312C2.33832 0.55312 0.657253 2.35411 0.657253 4.58062C0.530284 6.34153 0.476449 8.10294 0.479496 9.86435C0.474417 11.6258 0.531976 13.3888 0.652174 15.1535C0.652174 17.38 2.33325 19.186 4.40538 19.186C7.36122 19.3196 10.3932 19.3789 13.4761 19.374C16.5639 19.3839 19.5875 19.3212 22.5467 19.186C24.6239 19.186 26.305 17.38 26.305 15.1535C26.4269 13.3872 26.4828 11.6258 26.4777 9.8594C26.4892 8.09799 26.434 6.33493 26.3121 4.57022ZM10.9925 14.7181V4.99573L18.3568 9.85446L10.9925 14.7181Z" fill="#3B3A5D"/>
</g>
</svg>
